<?xml version="1.0" encoding="UTF-8"?>
<svg width="64px" height="61px" viewBox="0 0 64 61" version="1.1" xmlns="http://www.w3.org/2000/svg" xmlns:xlink="http://www.w3.org/1999/xlink">
    <!-- Generator: Sketch 55.2 (78181) - https://sketchapp.com -->
    <title>Rectangle Copy 5</title>
    <desc>Created with Sketch.</desc>
    <g id="dapps-center" stroke="none" stroke-width="1" fill="none" fill-rule="evenodd">
        <g id="Group-13-Copy-2" transform="translate(3.000000, 2.000000)">
            <g id="browser">
                <path d="M1,14 L57.2222222,14 L57.2222222,50.7407407 C57.2222222,52.9498797 55.4313612,54.7407407 53.2222222,54.7407407 L5,54.7407407 C2.790861,54.7407407 1,52.9498797 1,50.7407407 L1,14 Z" id="Rectangle-4" fill="#CDF4EE"></path>
                <g id="Group" transform="translate(0.888889, 0.777778)">
                    <path d="M0,0 L56.2222222,0 L56.2222222,7 C56.2222222,9.209139 54.4313612,11 52.2222222,11 L4,11 C1.790861,11 2.705415e-16,9.209139 0,7 L0,0 Z" id="Rectangle-4" fill="#5A78F0" transform="translate(28.111111, 5.500000) scale(1, -1) translate(-28.111111, -5.500000) "></path>
                    <path d="M49.3806584,3.56790123 C50.3181481,3.56790123 51.0781893,4.32794239 51.0781893,5.2654321 C51.0781893,6.20292181 50.3181481,6.96296296 49.3806584,6.96296296 L45.9855967,6.96296296 C45.048107,6.96296296 44.2880658,6.20292181 44.2880658,5.2654321 C44.2880658,4.32794239 45.048107,3.56790123 45.9855967,3.56790123 L49.3806584,3.56790123 Z M39.1954733,3.56790123 C40.132963,3.56790123 40.8930041,4.32794239 40.8930041,5.2654321 C40.8930041,6.20292181 40.132963,6.96296296 39.1954733,6.96296296 L35.8004115,6.96296296 C34.8629218,6.96296296 34.1028807,6.20292181 34.1028807,5.2654321 C34.1028807,4.32794239 34.8629218,3.56790123 35.8004115,3.56790123 L39.1954733,3.56790123 Z M29.0102881,3.56790123 C29.9477778,3.56790123 30.7078189,4.32794239 30.7078189,5.2654321 C30.7078189,6.20292181 29.9477778,6.96296296 29.0102881,6.96296296 L25.6152263,6.96296296 C24.6777366,6.96296296 23.9176955,6.20292181 23.9176955,5.2654321 C23.9176955,4.32794239 24.6777366,3.56790123 25.6152263,3.56790123 L29.0102881,3.56790123 Z" id="Combined-Shape" fill="#FFFFFF" fill-rule="nonzero"></path>
                </g>
                <path d="M28.4444444,21 C21.0311778,21 15,27.0311778 15,34.4444444 C15,41.8577111 21.0311778,47.8888889 28.4444444,47.8888889 C35.8578107,47.8888889 41.8888889,41.8577111 41.8888889,34.4444444 C41.8888889,27.0311778 35.8578107,21 28.4444444,21 Z M38.7940774,32.9506173 L34.3852955,32.9506173 C34.2600132,30.1434173 33.784279,27.5287218 33.01207,25.4695309 C32.942856,25.2848938 32.8721481,25.1096181 32.8006436,24.9393218 C35.9645695,26.3952058 38.2818938,29.3851506 38.7940774,32.9506173 Z M18.0948115,35.9382716 L22.5035934,35.9382716 C22.6288757,38.7454716 23.1046099,41.3601671 23.8768189,43.419358 C23.9460329,43.6039951 24.0167407,43.7792708 24.0882453,43.9495671 C20.9244189,42.4936831 18.6070947,39.5037383 18.0948115,35.9382716 Z M23.8768189,25.4696305 C23.1046099,27.5288214 22.6288757,30.1435169 22.5035934,32.9507169 L18.0948115,32.9507169 C18.6070947,29.3852502 20.9244189,26.3952058 24.0882453,24.9394214 C24.0167407,25.1097177 23.9460329,25.2849934 23.8768189,25.4696305 Z M30.2146296,42.370293 C29.4399309,44.436256 28.6574642,44.9012346 28.4444444,44.9012346 C28.2314247,44.9012346 27.4490576,44.436256 26.6742593,42.370293 C26.0204609,40.6268971 25.6123473,38.3825712 25.4937374,35.9382716 L31.3951514,35.9382716 C31.2765416,38.3824716 30.868428,40.6268971 30.2146296,42.370293 Z M25.4937374,32.9506173 C25.6123473,30.5064173 26.0204609,28.2619918 26.6742593,26.5185959 C27.4490576,24.4526329 28.2314247,23.9876543 28.4444444,23.9876543 C28.6574642,23.9876543 29.4399309,24.4526329 30.2146296,26.5185959 C30.868428,28.2619918 31.2765416,30.5063177 31.3951514,32.9506173 L25.4937374,32.9506173 Z M32.8006436,43.9495671 C32.8721481,43.7792708 32.942856,43.6038955 33.01207,43.419358 C33.784279,41.3601671 34.2600132,38.7454716 34.3852955,35.9382716 L38.7940774,35.9382716 C38.2818938,39.5037383 35.9645695,42.4937827 32.8006436,43.9495671 Z" id="Shape" fill="#05C0A5" fill-rule="nonzero"></path>
            </g>
        </g>
    </g>
</svg>