<?xml version="1.0" encoding="UTF-8"?>
<svg width="64px" height="61px" viewBox="0 0 64 61" version="1.1" xmlns="http://www.w3.org/2000/svg" xmlns:xlink="http://www.w3.org/1999/xlink">
    <!-- Generator: Sketch 55.2 (78181) - https://sketchapp.com -->
    <title>Rectangle Copy 7</title>
    <desc>Created with Sketch.</desc>
    <g id="dapps-center" stroke="none" stroke-width="1" fill="none" fill-rule="evenodd">
        <g id="lock-copy" transform="translate(7.000000, 2.000000)" fill-rule="nonzero">
            <path d="M21.8428149,30.4004644 C21.8512031,30.5205926 21.8634246,30.6409356 21.8795495,30.7613345 L25.8441509,30.2303583 L21.8442557,30.2014075 L21.8428149,30.4004644 Z M27.6071315,30.2670867 L27.6078051,30.1748724 L23.6079105,30.1458265 L27.5974768,30.4345499 C27.6015208,30.3786695 27.6047366,30.3228433 27.6071315,30.2670867 Z M29.8370032,31.2301157 L29.7990548,36.4609285 L29.7990548,36.4728779 C29.7990548,39.2984876 27.5073106,41.5925926 24.6804924,41.5925926 C21.8621323,41.5925926 19.574113,39.3115953 19.5620356,36.4487003 L19.5997622,31.2534063 C17.6040371,29.6965098 16.4074074,27.2950345 16.4074074,24.7079082 C16.4074074,20.1282419 20.124677,16.4074074 24.7039248,16.4074074 C29.2828625,16.4074074 33,20.128374 33,24.7079082 C33,27.2798723 31.8149718,29.6719298 29.8370032,31.2301157 Z" id="Path" stroke="#5A78F0" stroke-width="8" fill="#F9F9F9"></path>
            <path d="M49.3498329,15.7363586 L49.3480622,15.6916656 C49.3228307,15.1345519 49.3060096,14.544693 49.2958285,13.8889008 C49.2484639,10.690918 46.7053872,8.04562384 43.505847,7.86729434 C36.8349738,7.49470517 31.6744537,5.32023623 27.265126,1.02439883 L27.2275,0.988555852 C25.7888579,-0.329666109 23.6193855,-0.329223633 22.1816286,0.988113375 L22.1435599,1.02439883 C17.7342323,5.32023623 12.573712,7.49470517 5.90283895,7.86729434 C2.70329873,8.04562384 0.160221921,10.690918 0.112857478,13.8893433 C0.103118921,14.5411529 0.0858551861,15.1305694 0.0606236439,15.6916656 L0.0579677457,15.7965393 C-0.0717313521,22.5965118 -0.23285939,31.0589752 2.5992738,38.74086 C4.15654869,42.9650116 6.51459381,46.6369171 9.60833847,49.6548004 C13.1323479,53.0921783 17.747512,55.821106 23.3267877,57.7659149 C23.508278,57.8291932 23.6964081,57.8805236 23.8880795,57.9185791 C24.1589869,57.9730072 24.4316649,58 24.7043429,58 C24.977021,58 25.2501416,57.9730072 25.5206064,57.9185791 C25.7122779,57.8805236 25.9017359,57.8287506 26.0849968,57.7650299 C31.6567473,55.8171234 36.2670421,53.0868683 39.7875103,49.6499328 C42.879927,46.6307221 45.2384148,42.9574891 46.7970177,38.7328949 C49.6397746,31.0279999 49.4790893,22.5491639 49.3498329,15.7363586 Z M29.2446976,30.8753357 L29.2048584,36.4203644 C29.2008745,38.9116669 27.1726103,40.9370117 24.6799966,40.9370117 C22.1851699,40.9370117 20.1555777,38.9081269 20.1555777,36.4141693 L20.1555777,36.4017792 L20.1949744,30.900116 C18.1994669,29.4637451 16.9972048,27.1543121 16.9972048,24.6506195 C16.9972048,20.4030151 20.45393,16.9470519 24.7034577,16.9470519 C28.9525427,16.9470519 32.4097105,20.4030151 32.4097105,24.6506195 C32.4097105,27.1366119 31.2194001,29.4367523 29.2446976,30.8753357 Z" id="Shape" fill="#CDF4EE"></path>
        </g>
    </g>
</svg>